<svg xmlns="http://www.w3.org/2000/svg" width="89" height="128" fill="none"><g clip-path="url(#A)"><path d="M7.996 66.24l6.715 58.22c.235 2.023 1.94 3.54 3.975 3.54h50.671c2.034 0 3.739-1.529 3.975-3.54l6.715-58.22a8 8 0 0 0 7.996-7.996c0-4.41-3.587-7.996-7.996-7.996-1.834-8.267-6.456-15.64-13.076-20.908h1.87c2.211 0 3.998-1.787 3.998-3.998 0-1.058-.423-2.081-1.176-2.834l-4.833-4.833 4.833-4.833c1.564-1.564 1.564-4.092 0-5.656-.753-.753-1.764-1.176-2.834-1.176H44.015c0-3.316-2.681-5.997-5.997-5.997s-5.997 2.681-5.997 5.997v17.333C19.885 27.517 10.783 37.7 7.996 50.236A8 8 0 0 0 0 58.232c0 4.41 3.587 8.008 7.996 8.008z" fill="#150a05"/><path d="M12.03 66.24l6.667 57.762h50.671l6.668-57.762H12.03zm39.664 37.336H36.36c-6.444 0-11.665-5.221-11.665-11.665s5.221-11.665 11.665-11.665h15.334c6.444 0 11.665 5.221 11.665 11.665 0 6.432-5.221 11.665-11.665 11.665z" fill="#7a6252"/><path d="M72.002 66.24l-6.668 57.762h4.022l6.668-57.762h-4.022z" fill="#3e1f0f"/><g fill="#f2e8d9"><path d="M18.697 124.002l-1.646-14.288a1.99 1.99 0 0 1 1.764-2.21c1.094-.13 2.081.658 2.211 1.752l1.705 14.746h-4.033zm-5.468-47.296l2.399 20.779c.129 1.094 1.117 1.882 2.211 1.752s1.882-1.117 1.752-2.211l-2.399-20.779c-.129-1.094-1.117-1.882-2.211-1.752-1.082.118-1.87 1.117-1.752 2.211z"/></g><path d="M51.694 84.232H36.36a7.67 7.67 0 0 0-7.667 7.667 7.67 7.67 0 0 0 7.667 7.667h15.334a7.67 7.67 0 0 0 7.667-7.667 7.67 7.67 0 0 0-7.667-7.667z" fill="#00704b"/><path d="M44.027 91.899a7.67 7.67 0 0 0 7.667 7.667 7.67 7.67 0 0 0 7.667-7.667 7.67 7.67 0 0 0-7.667-7.667 7.67 7.67 0 0 0-7.667 7.667z" fill="#fff"/><path d="M64.006 14.84c-1.564 1.564-1.564 4.092 0 5.656l4.833 4.833H44.027V9.995h24.812l-4.833 4.845z" fill="#00704b"/><path d="M62.83 25.33h6.009l-4.833-4.833c-1.564-1.564-1.564-4.092 0-5.656l4.833-4.845H62.83c-4.233 0-7.667 3.434-7.655 7.667a7.66 7.66 0 0 0 7.655 7.667z" fill="#fff"/><path d="M40.029 37.783V5.997a2 2 0 0 0-1.999-1.999 2 2 0 0 0-1.999 1.999v31.785a2 2 0 0 0 1.999 1.999 2 2 0 0 0 1.999-1.999z" fill="#3e1f0f"/><path d="M7.996 62.242h72.049c2.211 0 3.998-1.787 3.998-3.998s-1.787-3.998-3.998-3.998H7.996c-2.211 0-3.998 1.787-3.998 3.998a4.01 4.01 0 0 0 3.998 3.998z" fill="#d9e8f2"/><path d="M72.049 54.234h7.996c2.211 0 3.998 1.787 3.998 3.998s-1.787 3.998-3.998 3.998H7.996c-2.211 0-3.998-1.787-3.998-3.998h68.051v-3.998z" fill="#52627a"/><path d="M59.749 29.328H44.027v8.455c0 3.316-2.681 5.997-5.997 5.997s-5.997-2.681-5.997-5.997V27.599c-9.913 3.881-17.333 12.312-19.92 22.637h63.829a32.88 32.88 0 0 0-16.193-20.908z" fill="#d9e8f2"/><path d="M54.504 29.328h5.245a32.92 32.92 0 0 1 16.193 20.908h-3.998a28.49 28.49 0 0 0-17.439-20.908z" fill="#52627a"/><path d="M16.11 50.236a28.32 28.32 0 0 1 4.28-10.289c.459-.694.282-1.623-.412-2.093a1.51 1.51 0 0 0-2.034.329c-2.752 3.575-4.727 7.679-5.833 12.053h3.998z" fill="#fff"/></g><defs><clipPath id="A"><path fill="#fff" d="M0 0h88.054v128H0z"/></clipPath></defs></svg>