<svg xmlns="http://www.w3.org/2000/svg" viewBox="0 0 303.9 315.1"><g fill="none" stroke="#000" stroke-linejoin="round" stroke-width="3"><path d="M47 8.3l104.5 45.3 28.6 44.8-15 30-6.9-4.2 1.1-10.2-21.1-53.2L47 8.3z"/><path d="M67.8 1.5L161 52.7l26 41.1-6.9 4.6-28.6-44.8-36.4-15.8L67.8 1.5zm9.8 167.9l76.3-69.1 5.4 13.7-1.1 10.2 6.9 4.2-52.3 56.6-35.2-15.6z"/><path d="M140 212.8l45.6-55.2-20.5-29.2-52.3 56.6 27.2 27.8z"/><path d="M165.1 128.4l-6.9-4.2 5.9-53.2 10.9 37.7-9.9 19.7z"/><path d="M185.6 157.6l64.7.7-85.2-29.9 20.5 29.2z"/><path d="M187 93.8l20.7 23.1 49.2 26.5-6.6 14.9-85.2-29.9 15-30 6.9-4.6zm2.2-24.7l-5.3 19.7-3.6-5.7 8.9-14z"/></g><path d="M33.5 314.5c-4.9 0-9.3-1-13.4-3.1s-7.6-4.8-10.6-8.3c-3-3.4-5.3-7.4-7-11.6-1.6-4.3-2.5-8.6-2.5-13 0-4.7.8-9.2 2.4-13.5s3.8-8.2 6.8-11.5c2.9-3.4 6.3-6.1 10.3-8 4-2 8.3-3 13-3 7.2 0 13 1.5 17.2 4.3 4.3 2.9 7.6 6.6 9.9 11.2l-3 1.5c-2.5-4.9-5.9-8.4-10-10.5s-8.9-3.2-14.2-3.2c-4.4 0-8.4.9-12 2.8-3.6 1.8-6.6 4.3-9.2 7.5-2.5 3.1-4.5 6.6-5.8 10.5s-2 7.9-2 12c0 4.2.8 8.4 2.3 12.4 1.5 3.9 3.7 7.4 6.5 10.5s6 5.5 9.6 7.2 7.5 2.6 11.8 2.6c4.7 0 9.2-1.2 13.5-3.5s8.4-6 12.3-11v4.2c-7.2 9-15.9 13.5-25.9 13.5h0zm24.8-31.6H41.9v-3h19.6V314h-3.2v-31.1zm12.8 16.2c0-3.1.9-5.7 2.8-7.9s4.4-4 7.6-5.3 6.9-1.9 11.2-1.9c2.8 0 5.7.2 8.7.8s5.7 1.2 8.1 2v-5.5c0-5.1-1.5-9.2-4.5-12.2-3-3.1-6.9-4.7-11.9-4.7-2.5 0-5.2.5-8.1 1.6-3.1 1.2-5.9 2.8-8.6 4.7l-1.7-2.5c3.4-2.3 6.6-4.1 9.7-5.2s6-1.7 8.9-1.7c6 0 10.8 1.8 14.3 5.4s5.3 8.5 5.3 14.7v27.3c0 .7.1 1.3.5 1.6.3.4.8.5 1.3.5v3h-1.2c-.3 0-.5 0-.8-.1-.9-.2-1.7-.7-2.2-1.5a6.22 6.22 0 0 1-.9-2.6v-4.5c-2.4 3.1-5.5 5.5-9.3 7.2s-7.9 2.5-12.2 2.5c-3.2 0-6.1-.7-8.7-2.1s-4.6-3.3-6.1-5.7c-1.4-2.3-2.2-5-2.2-7.9h0zm36.6 4.5c.6-.8 1-1.6 1.3-2.3.3-.8.5-1.4.5-2v-9.5c-2.6-1-5.3-1.7-8-2.2-2.8-.5-5.6-.7-8.5-.7-5.5 0-10 1.1-13.4 3.3s-5.1 5.2-5.1 8.8c0 2.4.6 4.6 1.8 6.6s2.9 3.6 5.1 4.8 4.6 1.8 7.2 1.8c4.1 0 7.9-.8 11.3-2.3 3.5-1.7 6.1-3.8 7.8-6.3h0zm42.5 11.4c-3.5 0-6.8-.7-9.9-2.1s-5.8-3.4-8.1-5.9-4.2-5.4-5.5-8.6c-1.3-3.3-2-6.9-2-10.5 0-5 1.1-9.5 3.3-13.5s5.2-7.2 9-9.5c3.8-2.4 8.1-3.5 13-3.5 4.5 0 8.6 1 12.1 3.2 3.5 2.1 6.2 5 7.9 8.6l-3.3 1.2c-1.6-3.1-3.9-5.5-6.9-7.2s-6.4-2.6-10.1-2.6c-4 0-7.6 1-10.9 3.1s-5.9 4.9-7.8 8.4-2.9 7.5-2.9 11.9c0 4.3 1 8.3 3 12s4.6 6.6 7.9 8.7c3.3 2.2 6.9 3.2 10.9 3.2 2.6 0 5.1-.5 7.6-1.5s4.6-2.2 6.4-3.8 3-3.2 3.5-5l3.4 1c-.8 2.4-2.2 4.5-4.3 6.5-2.1 1.9-4.5 3.4-7.3 4.4-2.9.9-5.8 1.5-9 1.5h0zm53.5 0c-3.5 0-6.8-.7-9.9-2.2-3.1-1.4-5.8-3.4-8.1-5.9s-4.1-5.4-5.4-8.7-2-6.9-2-10.5c0-4.8 1.1-9.3 3.3-13.2 2.2-4 5.2-7.2 8.9-9.6 3.8-2.4 8-3.6 12.7-3.6 4.8 0 9.1 1.2 12.8 3.6 3.8 2.4 6.8 5.6 9.1 9.7 2.3 4 3.4 8.5 3.4 13.4v.8c0 .3 0 .5-.1.8h-46.6c.3 4.2 1.5 8 3.6 11.4 2 3.4 4.7 6.1 7.9 8.1s6.8 3 10.5 3c3.8 0 7.5-1 10.7-3 3.3-2 5.7-4.5 7.1-7.5l3.1.8c-1 2.4-2.6 4.6-4.7 6.5s-4.6 3.4-7.5 4.5c-2.7 1-5.6 1.6-8.8 1.6h0zm-21.9-28.3h43.4c-.3-4.4-1.4-8.2-3.4-11.6s-4.5-6-7.8-7.9-6.8-2.9-10.7-2.9-7.4 1-10.5 2.9c-3.2 1.9-5.7 4.6-7.7 8-1.9 3.3-3 7.1-3.3 11.5zm58.7-45.7h3.5v64.6c0 2.1.5 3.7 1.7 4.8 1.1 1 2.5 1.6 4.3 1.6.9 0 1.9-.1 3-.3l3-.7.8 2.8c-1 .3-2.2.6-3.8.9-1.5.3-2.8.4-3.8.4-2.5 0-4.6-.8-6.2-2.4s-2.4-3.7-2.4-6.4l-.1-65.3h0zm19.9 58.1c0-3.1.9-5.7 2.8-7.9s4.4-4 7.6-5.3 6.9-1.9 11.2-1.9c2.8 0 5.7.2 8.7.8s5.7 1.2 8.1 2v-5.5c0-5.1-1.5-9.2-4.4-12.2-3-3.1-7-4.7-12-4.7-2.5 0-5.2.5-8 1.6s-5.7 2.6-8.7 4.7l-1.7-2.5c3.4-2.3 6.6-4.1 9.7-5.2s6-1.7 8.9-1.7c6 0 10.8 1.8 14.3 5.4s5.3 8.5 5.3 14.7v27.3c0 .7.2 1.3.4 1.6.3.4.8.5 1.3.5v3h-1.1c-.3 0-.6 0-.8-.1-.9-.2-1.7-.7-2.2-1.5a6.22 6.22 0 0 1-.9-2.6v-4.5c-2.4 3.1-5.5 5.5-9.3 7.2s-7.9 2.5-12.2 2.5c-3.2 0-6.1-.7-8.7-2.1s-4.7-3.3-6.2-5.7c-1.3-2.3-2.1-5-2.1-7.9h0zm36.6 4.5c.6-.8 1.1-1.6 1.4-2.3.3-.8.4-1.4.4-2v-9.5c-2.6-1-5.3-1.7-8.1-2.2s-5.6-.7-8.5-.7c-5.5 0-10 1.1-13.4 3.3s-5.1 5.2-5.1 8.8c0 2.4.6 4.6 1.9 6.6 1.2 2 2.9 3.6 5.1 4.8s4.6 1.8 7.2 1.8c4.1 0 7.9-.8 11.3-2.3 3.5-1.7 6.1-3.8 7.8-6.3h0z"/></svg>